<?xml version="1.0" encoding="utf-8"?>
<svg xmlns="http://www.w3.org/2000/svg" viewBox="0 0 64 64" width="512" height="512">
  <path d="M51.050781 5.988281C50.824219 5.976563 50.601563 6.050781 50.402344 6.199219L47 8.800781L43.597656 6.300781C43.199219 6 42.800781 6 42.402344 6.300781L39 8.800781L35.597656 6.300781C35.199219 6 34.800781 6 34.402344 6.300781L31 8.800781L27.597656 6.300781C27.199219 6 26.800781 6 26.402344 6.300781L23 8.800781L19.597656 6.300781C19.199219 6 18.800781 6 18.402344 6.300781L15 8.800781L11.597656 6.300781C11.300781 6.101563 10.898438 6 10.597656 6.199219C10.199219 6.300781 10 6.601563 10 7L10 54C10 54.300781 10.101563 54.5 10.300781 54.699219L12.300781 56.699219C12.5 56.898438 12.699219 57 13 57C13.199219 57 13.398438 56.902344 13.597656 56.800781L17 54.300781L20.402344 56.800781C20.800781 57.101563 21.199219 57.101563 21.597656 56.800781L25 54.300781L28.402344 56.800781C28.800781 57.101563 29.199219 57.101563 29.597656 56.800781L33 54.300781L36.402344 56.800781C36.800781 57.101563 37.199219 57.101563 37.597656 56.800781L41 54.300781L44.402344 56.800781C44.800781 57.101563 45.199219 57.101563 45.597656 56.800781L49 54.300781L52.402344 56.800781C52.699219 57 53.101563 57.101563 53.402344 56.902344C53.699219 56.699219 54 56.398438 54 56L54 9C54 8.699219 53.898438 8.5 53.699219 8.300781L51.699219 6.300781C51.5 6.101563 51.277344 6 51.050781 5.988281 Z M 19 8.199219L22.402344 10.699219C22.800781 11 23.199219 11 23.597656 10.699219L27 8.199219L30.402344 10.699219C30.800781 11 31.199219 11 31.597656 10.699219L35 8.199219L38.402344 10.699219C38.800781 11 39.199219 11 39.597656 10.699219L43 8.199219L46.402344 10.699219C46.800781 11 47.199219 11 47.597656 10.699219L50.902344 8.199219L52 9.398438L52 44C51.398438 44 51 44.398438 51 45L51 47C51 47.601563 51.398438 48 52 48L52 54L49.597656 52.199219C49.199219 51.898438 48.800781 51.898438 48.402344 52.199219L45 54.800781L41.597656 52.300781C41.398438 52.101563 41.199219 52 41 52C40.800781 52 40.601563 52.097656 40.402344 52.199219L37 54.800781L33.597656 52.300781C33.199219 52 32.800781 52 32.402344 52.300781L29 54.800781L25.597656 52.300781C25.199219 52 24.800781 52 24.402344 52.300781L21 54.800781L17.597656 52.300781C17.199219 52 16.800781 52 16.402344 52.300781L13.097656 54.800781L12 53.597656L12 48C12.601563 48 13 47.601563 13 47L13 45C13 44.398438 12.601563 44 12 44L12 9L14.402344 10.800781C14.800781 11.101563 15.199219 11.101563 15.597656 10.800781 Z M 19 16C18.398438 16 18 16.398438 18 17C18 17.601563 18.398438 18 19 18L35 18C35.601563 18 36 17.601563 36 17C36 16.398438 35.601563 16 35 16 Z M 39 16C38.398438 16 38 16.398438 38 17C38 17.601563 38.398438 18 39 18L45 18C45.601563 18 46 17.601563 46 17C46 16.398438 45.601563 16 45 16 Z M 19 20C18.398438 20 18 20.398438 18 21C18 21.601563 18.398438 22 19 22L30 22C30.601563 22 31 21.601563 31 21C31 20.398438 30.601563 20 30 20 Z M 42 20C41.398438 20 41 20.398438 41 21L41 22C39.300781 22 38 23.300781 38 25L38 28C38 29.699219 39.300781 31 41 31L43 31C43.601563 31 44 31.398438 44 32L44 35C44 35.601563 43.601563 36 43 36L41 36C40.398438 36 40 35.601563 40 35L40 34C40 33.398438 39.601563 33 39 33C38.398438 33 38 33.398438 38 34L38 35C38 36.699219 39.300781 38 41 38L41 39C41 39.601563 41.398438 40 42 40C42.601563 40 43 39.601563 43 39L43 38C44.699219 38 46 36.699219 46 35L46 32C46 30.300781 44.699219 29 43 29L41 29C40.398438 29 40 28.601563 40 28L40 25C40 24.398438 40.398438 24 41 24L43 24C43.601563 24 44 24.398438 44 25L44 26C44 26.601563 44.398438 27 45 27C45.601563 27 46 26.601563 46 26L46 25C46 23.300781 44.699219 22 43 22L43 21C43 20.398438 42.601563 20 42 20 Z M 19 28C18.398438 28 18 28.398438 18 29C18 29.601563 18.398438 30 19 30L29 30C29.601563 30 30 29.601563 30 29C30 28.398438 29.601563 28 29 28 Z M 19 32C18.398438 32 18 32.398438 18 33C18 33.601563 18.398438 34 19 34L32 34C32.601563 34 33 33.601563 33 33C33 32.398438 32.601563 32 32 32 Z M 19 36C18.398438 36 18 36.398438 18 37C18 37.601563 18.398438 38 19 38L23 38C23.601563 38 24 37.601563 24 37C24 36.398438 23.601563 36 23 36 Z M 27 36C26.398438 36 26 36.398438 26 37C26 37.601563 26.398438 38 27 38L29 38C29.601563 38 30 37.601563 30 37C30 36.398438 29.601563 36 29 36 Z M 17 44C16.398438 44 16 44.398438 16 45L16 47C16 47.601563 16.398438 48 17 48C17.601563 48 18 47.601563 18 47L18 45C18 44.398438 17.601563 44 17 44 Z M 22 44C21.398438 44 21 44.398438 21 45L21 47C21 47.601563 21.398438 48 22 48C22.601563 48 23 47.601563 23 47L23 45C23 44.398438 22.601563 44 22 44 Z M 27 44C26.398438 44 26 44.398438 26 45L26 47C26 47.601563 26.398438 48 27 48C27.601563 48 28 47.601563 28 47L28 45C28 44.398438 27.601563 44 27 44 Z M 32 44C31.398438 44 31 44.398438 31 45L31 47C31 47.601563 31.398438 48 32 48C32.601563 48 33 47.601563 33 47L33 45C33 44.398438 32.601563 44 32 44 Z M 37 44C36.398438 44 36 44.398438 36 45L36 47C36 47.601563 36.398438 48 37 48C37.601563 48 38 47.601563 38 47L38 45C38 44.398438 37.601563 44 37 44 Z M 42 44C41.398438 44 41 44.398438 41 45L41 47C41 47.601563 41.398438 48 42 48C42.601563 48 43 47.601563 43 47L43 45C43 44.398438 42.601563 44 42 44 Z M 47 44C46.398438 44 46 44.398438 46 45L46 47C46 47.601563 46.398438 48 47 48C47.601563 48 48 47.601563 48 47L48 45C48 44.398438 47.601563 44 47 44Z" />
</svg>