<?xml version="1.0" encoding="utf-8"?>
<svg xmlns="http://www.w3.org/2000/svg" viewBox="0 0 24 24" width="480" height="480">
  <path d="M10.3125 -0.03125C8.589844 -0.03125 7.164063 1.316406 7 3L2 3L2 5L6.96875 5L6.96875 5.03125L17.03125 5.03125L17.03125 5L22 5L22 3L17 3C16.84375 1.316406 15.484375 -0.03125 13.8125 -0.03125 Z M 10.3125 2.03125L13.8125 2.03125C14.320313 2.03125 14.695313 2.429688 14.84375 2.96875L9.15625 2.96875C9.296875 2.429688 9.6875 2.03125 10.3125 2.03125 Z M 4 6L4 22.5C4 23.300781 4.699219 24 5.5 24L18.59375 24C19.394531 24 20.09375 23.300781 20.09375 22.5L20.09375 6 Z M 7 9L8 9L8 22L7 22 Z M 10 9L11 9L11 22L10 22 Z M 13 9L14 9L14 22L13 22 Z M 16 9L17 9L17 22L16 22Z" fill="#D63131" />
</svg>